<svg xmlns="http://www.w3.org/2000/svg" id="a" viewBox="0 0 61.4 58"><path d="M0,47.2c.36-.21,.71-.54,1.1-.62,.92-.19,1.5-.63,1.6-1.6,.02-.15,.09-.31,.15-.45,.3-.76,1.2-.96,1.58-.26,.64,1.16,1.48,1.59,2.79,1.43,.78-.1,1.25,.85,.71,1.42-.91,.96-1.05,1.9-.5,3.09,.33,.71-.42,1.43-1.13,1.1-1.16-.55-2.12-.48-3.04,.46-.18,.18-.72,.22-.96,.08-.25-.13-.51-.58-.47-.85,.18-1.23-.19-2.11-1.35-2.64-.19-.08-.32-.28-.47-.43,0-.24,0-.48,0-.72Zm3.15,.73l.56,1.15,1.3-.2,.18-1.28-1.16-.63-.88,.96Z"></path><path d="M26.03,27.2c-1.51,.59-2.82,1.4-4.03,2.38-2.51,2.03-4.24,4.65-5.68,7.48-.13,.25-.24,.51-.38,.75-.29,.52-.72,.67-1.2,.42-.48-.25-.65-.7-.4-1.22,2.17-4.52,4.99-8.46,9.6-10.82,.06-.03,.12-.08,.15-.27-1.14,.07-2.29,.07-3.43,.21-4.78,.56-9.08,2.26-12.73,5.46-2.47,2.17-4.34,4.78-5.79,7.72-.07,.14-.14,.29-.21,.43-.32,.63-.72,.8-1.24,.55-.51-.25-.66-.72-.38-1.31,1.45-3.06,3.33-5.82,5.8-8.15,3.87-3.65,8.49-5.69,13.72-6.38,1.67-.22,3.37-.25,5.06-.37-.04-.03-.11-.1-.18-.14-3.08-1.73-6.33-2.99-9.9-3.09-1.46-.04-2.94,.18-4.4,.34-.85,.1-1.34-.19-1.3-.93,.03-.55,.39-.74,.86-.84,2.53-.57,5.07-.56,7.61-.08,3.04,.57,5.84,1.75,8.49,3.3,.16,.1,.33,.18,.6,.19-.26-.53-.5-1.06-.77-1.58-2.06-3.87-4.78-7.12-8.7-9.25-1.66-.9-3.44-1.48-5.3-1.81-.77-.14-1.08-.49-.97-1.08,.11-.59,.56-.82,1.3-.68,5.95,1.09,10.38,4.44,13.7,9.37,.66,.97,1.2,2.03,1.79,3.04,.08,.13,.15,.25,.25,.41,.24-1.34,.44-2.63,.71-3.91,.1-.48,.3-.97,.57-1.37,.17-.25,.61-.53,.83-.47,.29,.08,.57,.45,.71,.77,.1,.21-.02,.54-.08,.81-.29,1.3-.6,2.6-.9,3.9l.16,.07c.13-.18,.25-.36,.38-.54,3.46-5.1,7.93-8.94,13.83-10.96,2.57-.88,5.23-1.29,7.94-1.34,.68-.01,1.04,.3,1.06,.87,.02,.57-.31,.9-1,.92-3.44,.08-6.74,.75-9.85,2.24-4.98,2.38-8.65,6.13-11.39,10.93,.18-.08,.36-.16,.54-.24,2.12-1.01,4.29-1.85,6.65-2.09,.71-.07,1.07,.16,1.14,.73,.07,.6-.23,.96-.95,1.04-2.3,.27-4.4,1.12-6.45,2.13-.12,.06-.23,.14-.26,.17,1.63,.63,3.32,1.17,4.9,1.92,5,2.37,8.89,6.04,12.08,10.5,2.5,3.48,4.4,7.27,5.93,11.25,.26,.68,.12,1.12-.43,1.34-.56,.23-.98,0-1.26-.73-1.69-4.38-3.83-8.52-6.75-12.22-3.43-4.33-7.57-7.71-12.84-9.57-.84-.3-1.71-.5-2.68-.79,.08,.25,.1,.36,.15,.45,2.62,4.51,4.12,9.41,5.15,14.49,.23,1.11,.42,2.24,.61,3.36,.14,.82-.1,1.23-.71,1.32-.59,.09-.9-.26-1.08-1.07-.67-3.02-1.28-6.05-2.07-9.04-.81-3.04-2.06-5.91-3.72-8.6-.08-.14-.17-.27-.26-.4-.02-.03-.07-.04-.14-.07-.94,1.14-1.64,2.43-2.24,3.78-1.42,3.22-2.19,6.62-2.73,10.08-.82,5.27-1.09,10.57-.98,15.89,0,.12,0,.24,0,.36-.04,.56-.4,.89-.93,.88-.51-.01-.85-.33-.85-.88-.01-1.92-.05-3.84,.01-5.75,.15-4.7,.57-9.37,1.56-13.98,.75-3.49,1.77-6.88,3.65-9.95,.03-.05,.03-.11,.07-.23Z"></path><path d="M21.32,7.78c.3-.89-.22-1.5-1.09-1.94-.28-.14-.58-.32-.77-.56-.22-.27-.48-.66-.44-.94,.05-.29,.42-.61,.73-.75,.54-.25,1.15-.34,1.7-.57,.23-.1,.47-.34,.57-.58,.23-.57,.32-1.2,.57-1.76,.13-.29,.44-.62,.72-.67,.28-.05,.62,.23,.92,.37,.06,.03,.11,.12,.14,.19,.65,1.49,1.8,1.97,3.35,1.68,.46-.09,.88,.05,1.11,.52,.21,.44,.02,.8-.25,1.16-.42,.56-1.06,1.09-1.15,1.71-.1,.61,.35,1.32,.58,1.97,.16,.44,.24,.85-.13,1.22-.37,.37-.82,.34-1.22,.12-1.39-.76-2.58-.58-3.65,.6-.31,.34-.72,.52-1.19,.29-.48-.23-.53-.66-.51-1.12,.01-.26,0-.52,0-.93Zm.61-3.04c.43,.39,.87,.64,1.06,1.01,.2,.38,.15,.89,.2,1.32,.43-.23,.8-.57,1.22-.63,.41-.06,.87,.14,1.43,.26-.65-.98-.44-1.82,.35-2.57-.58-.06-1.08,0-1.45-.18-.38-.2-.64-.64-1.07-1.11,.01,1.27-.69,1.76-1.76,1.91Z"></path><path d="M39.72,53.08c.08-.54,.2-1.09,.24-1.64,.02-.23-.08-.53-.24-.71-.32-.38-.72-.69-1.07-1.05-.55-.58-.31-1.37,.47-1.56,.33-.08,.67-.16,1-.16,.71,0,1.14-.31,1.35-.99,.11-.34,.28-.66,.47-.97,.38-.63,1.19-.63,1.57,0,.27,.46,.47,.97,.75,1.43,.1,.17,.33,.33,.52,.38,.48,.11,1,.1,1.47,.25,.31,.1,.71,.33,.79,.59,.09,.29-.08,.72-.26,1.01-.21,.33-.52,.6-.84,.85-.41,.32-.47,.69-.35,1.15,.1,.4,.18,.82,.22,1.24,.08,.81-.65,1.4-1.29,.94-1.23-.87-2.31-.79-3.5,.05-.56,.39-1.3-.12-1.31-.8Zm3.05-4.34l-1.31,.94,.51,1.55h1.73c-.21-.62,.02-1.15,.45-1.49l-1.38-1.01Z"></path><path d="M54.2,13.29c1.39,.64,2.24,.04,2.98-1.01,.15-.22,.65-.37,.93-.3,.27,.07,.63,.45,.65,.72,.09,1.3,.71,2.04,1.98,2.37,.27,.07,.59,.52,.62,.82,.03,.27-.25,.73-.51,.83-1.22,.48-1.71,1.32-1.63,2.61,.02,.26-.3,.67-.56,.8-.24,.11-.76,.04-.91-.15-.88-1.07-1.88-1.24-3.15-.76-.69,.26-1.37-.56-1-1.2,.68-1.16,.71-2.18-.2-3.23-.16-.19-.14-.69,0-.93,.15-.26,.53-.39,.81-.57Zm1.94,3.6l1.35,.34,.75-1.15-.88-1.08-1.32,.53,.1,1.36Z"></path><path d="M44.59,20.36c5.03,.31,9.57,2.02,13.74,4.79,.85,.56,1.66,1.18,2.47,1.8,.66,.5,.76,.97,.37,1.45-.38,.47-.84,.46-1.46-.03-3.13-2.48-6.55-4.43-10.45-5.41-1.56-.39-3.18-.57-4.77-.79-.83-.11-1.21-.34-1.19-.94,.02-.63,.43-.91,1.29-.87Z"></path><path d="M32.32,11.81c-.93,0-1.36-.75-.97-1.39,.82-1.34,1.6-2.72,2.59-3.94,.91-1.12,2.04-2.06,3.12-3.04,.56-.5,1.11-.45,1.45,.03,.33,.45,.21,.95-.36,1.38-2.2,1.65-3.82,3.77-5.11,6.17-.19,.35-.55,.6-.72,.79Z"></path><path d="M6.62,22.25c-.09,.11-.22,.4-.44,.54-1.66,.99-3.12,2.22-4.45,3.61-.4,.42-.92,.41-1.28,.06-.36-.36-.39-.89-.02-1.29,1.42-1.53,3-2.86,4.82-3.9,.68-.39,1.38,.04,1.36,.98Z"></path><path d="M12.18,47.32c-.55-.01-.98-.5-.85-1.07,.25-1.15,.53-2.29,.84-3.42,.15-.54,.64-.78,1.12-.64,.49,.15,.72,.64,.58,1.21-.26,1.04-.52,2.09-.78,3.13-.13,.51-.46,.8-.91,.79Z"></path><path d="M58.39,40.78c0,.5-.35,.89-.84,.91-.5,.02-.87-.33-.89-.85-.03-.54,.34-.94,.86-.94,.48,0,.86,.38,.87,.88Z"></path><path d="M5.35,13.46c.03-.51,.39-.84,.91-.81,.49,.02,.83,.41,.81,.91-.02,.53-.43,.9-.94,.85-.49-.04-.81-.44-.78-.95Z"></path><path d="M45.82,5.11c-.01,.52-.35,.86-.87,.86-.53,0-.87-.38-.84-.94,.02-.51,.4-.87,.89-.84,.49,.02,.83,.41,.81,.92Z"></path><path d="M29.19,45.82c.49,.01,.84,.38,.83,.9,0,.52-.34,.87-.85,.88-.53,0-.89-.38-.87-.92,.02-.51,.39-.87,.89-.86Z"></path><path d="M53.89,28.75c.01,.51-.34,.9-.82,.92-.5,.02-.9-.38-.9-.91,0-.51,.36-.87,.86-.88,.51,0,.85,.34,.86,.86Z"></path><path d="M12.18,55.77c-.49-.01-.84-.38-.83-.9,0-.52,.35-.87,.85-.87,.52,0,.89,.39,.87,.93-.02,.51-.4,.86-.89,.85Z"></path></svg>