<svg xmlns="http://www.w3.org/2000/svg" id="a" viewBox="0 0 59.9 60"><path d="M0,25.54v-.23c.21-1.04,.9-1.59,1.86-1.97,2.55-1.01,5.08-2.09,7.62-3.13,1.19-.49,2.28-.03,2.79,1.15,.38,.88,.73,1.76,1.09,2.65,1.36,3.29,2.72,6.59,4.1,9.88,.07,.17,.3,.43,.43,.41,.67-.07,1.33-.21,2.03-.33-.02-.13-.02-.25-.05-.36-1.37-5.86-2.76-11.72-4.12-17.59-.36-1.57-.85-3.1-.74-4.77,.18-2.78,.24-5.57,.33-8.36,.05-1.73,.43-2.3,2-2.89h.7c.95,.26,1.52,.91,1.97,1.77,1.45,2.74,2.94,5.45,4.41,8.18,.16,.31,.32,.63,.4,.97,1.3,5.54,2.59,11.08,3.89,16.62,.29,1.24,.59,2.49,.89,3.76,.68-.47,1.28-.94,1.93-1.32,.42-.24,.59-.5,.57-1-.15-3.48,.13-6.94,.65-10.38,.04-.28-.08-.66-.26-.88-2.25-2.88-1.74-6.19,.26-8.32,1.23-1.31,2.24-2.84,3.22-4.36,.67-1.03,.9-2.25,.58-3.49-.17-.68,0-1.18,.57-1.55h.7c1.59,1.28,2.94,2.78,4.08,4.47,2.99,4.45,3.25,9.5-.03,13.78-.12,.15-.15,.39-.16,.59-.09,2.42-.16,4.84-.27,7.25-.03,.71-.15,1.42-.23,2.08l3.61,1.3c1.04-2.59,2.14-5.17,3.1-7.81,.42-1.18,.58-2.46,.77-3.71,.11-.7,.37-1.19,.97-1.56,2.18-1.34,4.34-2.7,6.51-4.05,1.02-.63,1.64-.37,1.91,.79,.56,2.45,1.12,4.91,1.71,7.35,.18,.75,.07,1.36-.44,1.95-1.17,1.38-2.07,2.93-2.76,4.6-1.58,3.8-3.14,7.6-4.69,11.41-.1,.26-.12,.56-.12,.85,.02,1.24,.07,2.49,.09,3.73,0,.3-.07,.61-.11,.93,.27,.02,.48,.05,.69,.06,4.32,.34,7.52,3.94,7.39,8.3-.13,4.18-3.65,7.65-7.89,7.65-14.71,.02-29.41,.02-44.12,0-3.58,0-6.74-2.55-7.61-6C.16,53.61,.09,53.23,0,52.85c0-.59,0-1.17,0-1.76,.04-.11,.09-.21,.11-.32,.51-2.86,2.09-4.92,4.74-6.09,.82-.36,1.74-.52,2.66-.78-.05-.14-.12-.33-.2-.52-.78-1.89-1.57-3.78-2.35-5.67-1.66-4.05-3.31-8.11-4.97-12.16ZM30.01,58c7.32,0,14.64,.02,21.97,0,3.57-.01,6.34-3.06,6-6.51-.35-3.58-3.58-6.02-7.14-5.38-1.02,.18-1.57-.41-1.29-1.43,.47-1.74,.56-3.49,.26-5.28-1.04-6.12-7.28-10.45-13.36-9.23-4.11,.83-6.99,3.2-8.63,7.06-.18,.42-.4,.83-.88,.82-.36-.01-.75-.18-1.06-.39-3.74-2.54-8.72-2.15-11.96,.99-1.82,1.76-2.78,3.92-2.91,6.45-.04,.72-.39,1.16-.97,1.17-.27,0-.54-.08-.8-.14-4.26-.94-8.11,3-7.08,7.24,.68,2.78,3.04,4.62,6,4.63,7.28,0,14.57,0,21.85,0ZM11.14,23.84l-.77-1.84-8.31,3.45,7.24,17.44c1.03-3.7,3.19-6.26,6.48-7.87l-.8-1.92c-.25,.1-.44,.17-.64,.25-1.01,.41-2.01,.84-3.03,1.24-.7,.27-1.38-.14-1.41-.84-.02-.54,.29-.86,.77-1.05,1.17-.48,2.34-.97,3.54-1.47l-.74-1.79c-.06,0-.09-.02-.1,0-.54,.22-1.08,.44-1.62,.66-.67,.26-1.23,.06-1.46-.52-.21-.55,.05-1.05,.7-1.33,.55-.24,1.1-.46,1.69-.71l-.77-1.83c-1.19,.49-2.32,.97-3.46,1.42-.25,.1-.53,.18-.79,.15-.48-.06-.77-.39-.82-.87-.06-.51,.21-.86,.67-1.05,1.18-.5,2.37-.98,3.63-1.5Zm15.3,11.48c.44-.67,.77-1.25,1.17-1.78,.27-.35,.31-.66,.21-1.07-1.01-4.27-2-8.54-3-12.82-.43-1.85-.87-3.7-1.31-5.56-.49,.36-.92,.72-1.4,1.01-.29,.18-.35,.34-.27,.65,.21,.81,.39,1.63,.58,2.45,.15,.67-.13,1.2-.7,1.33-.59,.14-1.05-.19-1.23-.86-.04-.15-.07-.3-.11-.45-.19-.81-.39-1.62-.57-2.35l-2.11-.41c.01,.1,.02,.2,.04,.28,.61,2.6,1.22,5.2,1.83,7.8,.79,3.36,1.57,6.72,2.37,10.08,.04,.18,.18,.42,.33,.47,.6,.18,1.23,.3,1.9,.46-.03-.21-.04-.36-.08-.51-.43-1.84-.86-3.68-1.29-5.52-.36-1.54-.73-3.07-1.08-4.61-.2-.87,.2-1.47,.94-1.45,.62,.02,.88,.42,1,.96,.51,2.18,1.02,4.37,1.53,6.55,.41,1.74,.82,3.48,1.25,5.33ZM38.63,3.47c-.27,1.46-.79,2.66-1.56,3.72-.94,1.29-1.94,2.54-2.98,3.76-1.36,1.59-1.43,3.89-.08,5.47,.16,.19,.44,.36,.67,.38,1.73,.13,3.46,.23,5.2,.32,.18,0,.43-.1,.53-.24,1.48-1.98,2.15-4.2,1.73-6.65-.36-2.11-1.27-4-2.6-5.68-.26-.33-.55-.64-.91-1.06Zm16.23,12.22l-.09-.08c-1.26,.78-2.52,1.56-3.76,2.36-.15,.09-.24,.33-.29,.51-.4,1.58-.8,3.16-1.17,4.75-.05,.22-.05,.51,.05,.71,.86,1.85,3.13,2.78,5.03,2.05,.21-.08,.4-.29,.52-.49,.85-1.37,1.68-2.75,2.51-4.14,.09-.15,.22-.36,.18-.51-.32-1.48-.67-2.94-1.05-4.55-.14,.31-.23,.5-.31,.7-.39,.93-.76,1.88-1.17,2.8-.25,.57-.77,.78-1.29,.57-.51-.2-.74-.73-.55-1.31,.05-.15,.12-.29,.18-.43,.41-.99,.81-1.97,1.22-2.96Zm-4.05,20.26l3.18-7.68c-2.26,.1-4.06-.67-5.55-2.28l-1.92,4.66c1.88,1.41,3.26,3.15,4.3,5.29ZM17.15,8.86c-.05,1.16-.1,2.25-.13,3.33,0,.12,.07,.26,.15,.36,.66,.91,2.13,1.41,3.26,1.13,1.05-.26,2.13-1.42,2.29-2.45,.01-.09,.03-.21,0-.28-.53-1.01-1.08-2.01-1.64-3.05-1.18,.94-2.48,1.17-3.91,.96Zm17,14.94v4.76l5.12-.72,.39-3.71-5.52-.33Zm5.61-4.68l-5.02-.29-.36,3,5.38,.28v-2.98ZM20.06,6.14c-.07-.14-.12-.29-.2-.42-.62-1.15-1.24-2.3-1.87-3.44-.06-.11-.3-.26-.35-.22-.13,.08-.26,.25-.27,.39-.06,1.36-.11,2.73-.13,4.1,0,.12,.2,.33,.34,.35,.93,.15,1.78-.05,2.49-.75Z"></path><path d="M24.28,50.04c.1-2.51,1.65-4.73,4-5.62,2.32-.88,4.94-.23,6.6,1.67,.26,.3,.44,.36,.82,.22,2.32-.85,4.91,.15,6.06,2.32,.36,.69,.25,1.28-.3,1.57-.53,.28-1.06,.06-1.44-.59-.96-1.63-2.78-2.09-4.32-1.1-.87,.56-1.32,.45-1.84-.46-.95-1.66-2.79-2.42-4.61-1.89-1.79,.51-2.99,2.2-2.87,4.07,.03,.44,.17,.88,.29,1.3,.19,.67-.02,1.22-.58,1.4-.56,.19-1.1-.08-1.31-.75-.22-.7-.35-1.43-.52-2.14Z"></path><path d="M37.98,32.98c0,.59-.37,.95-1.05,1.01-1.59,.13-2.81,.86-3.59,2.28-.17,.3-.26,.65-.39,.97-.22,.58-.69,.85-1.23,.71-.52-.14-.79-.64-.68-1.25,.47-2.53,3.36-4.82,5.92-4.71,.6,.03,1.01,.43,1.02,.99Z"></path><path d="M17.9,39c.57,0,.91,.24,1.05,.7,.14,.46,0,.85-.41,1.12-.19,.13-.43,.19-.63,.3-1.06,.55-1.69,1.41-1.87,2.59-.02,.13-.03,.27-.06,.4-.12,.57-.54,.92-1.07,.87-.53-.05-.9-.46-.9-1.04,0-1.04,.29-2,.91-2.84,.67-.92,1.56-1.57,2.62-1.99,.14-.06,.3-.09,.37-.11Z"></path><path d="M40.94,10.68c0,1.71-.43,3.12-1.3,4.39-.43,.63-.96,.79-1.48,.47-.53-.33-.61-.94-.17-1.58,.85-1.26,1.08-2.64,.89-4.12-.08-.62,.26-1.07,.81-1.16,.56-.09,.99,.22,1.14,.83,.03,.13,.06,.27,.07,.4,.03,.31,.04,.62,.05,.77Z"></path></svg>