<svg xmlns="http://www.w3.org/2000/svg" id="a" viewBox="0 0 46.34 62"><g><path d="M17.8,44.04c-.27-.18-.57-.32-.8-.55-1.29-1.26-2.52-2.59-3.19-4.29-.32-.81-.47-1.69-.72-2.61-.54-.05-.8-.52-.98-1.08-.16-.5-.39-.98-.51-1.49-.69-2.74-2.22-5.14-3.08-7.81-.87-2.68-1.85-5.32-2.69-8-1.08-3.44-2.08-6.92-3.1-10.38-.46-1.55-.9-3.11-1.34-4.67-.17-.6-.17-1.21,.04-1.81C1.87,.07,3.15-.41,4.26,.38c.47,.33,.88,.83,1.14,1.34,.52,1.01,.92,2.08,1.36,3.13,.21,.51,.09,.91-.31,1.06-.39,.15-.73-.05-.95-.58-.4-.95-.79-1.91-1.21-2.85-.14-.31-.33-.62-.56-.85-.49-.48-.97-.33-1.07,.35-.04,.29-.03,.61,.05,.89,.82,2.87,1.64,5.73,2.49,8.59,.86,2.89,1.72,5.77,2.64,8.64,1.29,4.02,2.69,8,4.57,11.8,.03,.07,.07,.13,.12,.24l2.51-.9c-.03-.16-.05-.32-.09-.47-.68-2.31-1.29-4.65-2.06-6.93-1.78-5.3-3.97-10.44-6.14-15.58-.2-.48-.09-.86,.29-1.03,.38-.17,.74,0,.94,.49,2.31,5.46,4.62,10.92,6.48,16.56,.71,2.14,1.24,4.35,1.88,6.52,.13,.44,.44,.83,.62,1.26,.25,.61,.45,1.24,.68,1.86,.16,.44,.04,.82-.28,1.19,.63,.87,1.09,1.81,1.31,2.87,.37,1.76,.28,3.52,.04,5.27-.03,.24-.25,.45-.39,.68l-.53,.1Zm-.29-1.93c.02-.54,.06-.97,.06-1.4,0-1.47-.13-2.9-.9-4.2q-.54-.91-1.52-.55c-.64,.24-.64,.24-.57,.93,.21,2.13,1.47,3.66,2.92,5.22Zm-1.24-7.98l-.59-1.69-2.85,1.03,.61,1.67,2.83-1.02Z"></path><path d="M15.63,47c.04-.17,.07-.35,.12-.52,.47-1.74,1.64-2.76,3.37-3.16,.96-.22,1.92-.09,2.88,.06,2.18,.35,4.36,.71,6.54,1.06,.23,.04,.47,.05,.7,.09,.24,.04,.36,.19,.33,.41-.03,.21-.19,.32-.44,.29-1.35-.2-2.71-.39-4.06-.6-1.37-.21-2.73-.47-4.1-.66-1.19-.16-2.32,.02-3.31,.78-1.04,.8-1.56,2.24-1.23,3.4,.26,.9,.96,1.41,1.8,1.27,.23-.04,.45-.16,.66-.28,.18-.11,.14-.29-.06-.36-.11-.04-.23-.04-.35-.05-.68-.07-1.07-.46-1.12-1.14-.11-1.66,.88-2.76,2.6-2.81,.58-.02,1.16,.08,1.73,.15,.36,.05,.46,.25,.32,.59-.51,1.24-.9,2.51-1.17,3.82-.18,.88-.31,1.76-.27,2.67,.01,.28-.12,.44-.34,.45-.23,0-.36-.14-.37-.42-.06-1.36,.2-2.68,.55-3.98,.23-.83,.51-1.65,.77-2.5-.84-.12-1.68-.22-2.45,.3-.68,.46-.75,1.22-.63,1.87,.02,.11,.21,.21,.34,.27,.12,.05,.26,.04,.4,.05,.41,.05,.75,.34,.85,.72,.1,.37-.03,.68-.39,.96-1.13,.85-2.77,.4-3.38-.94-.14-.3-.2-.64-.29-.96,0-.27,0-.54,0-.8Z"></path><path d="M23.71,46.02c-.63,2.17-1.22,4.33-.94,6.63,.26-.36,.48-.74,.51-1.19,.09-1.62,1.31-3.23,2.81-3.72,.47-.15,.96-.19,1.44-.05,.47,.14,.83,.44,1.05,.88,.02,.05,.05,.09,.08,.14,.89-1.31,2.32-1.46,3.42-.41,.34-.2,.65-.42,1-.57,.42-.18,.86-.15,1.29,0,.07,.02,.15,.03,.23,.03,.23,0,.34-.1,.36-.35,.04-.41,.12-.81,.19-1.21,.05-.34,.22-.6,.55-.71,.46-.15,.93-.28,1.4-.41,.12-.03,.27-.01,.4,0,.31,.06,.46,.23,.44,.54-.04,.57-.11,1.14-.17,1.71,0,.05-.01,.09-.02,.17,.23,0,.44-.02,.66-.03,.18,0,.36-.02,.54,.02,.35,.07,.56,.31,.6,.67,.02,.2,.02,.41,0,.61-.04,.54-.35,.83-.89,.84-.43,0-.86,0-1.31,0-.12,1.15-.34,2.24,.02,3.33l.08,.03c.15-.23,.31-.45,.43-.68,.22-.41,.49-.59,.9-.55,.42,.04,.91,.4,1,.75,.04,.15,.05,.34,0,.48-.27,.71-.67,1.34-1.3,1.78-1.06,.74-2.43,.57-3.27-.41-.04-.04-.07-.08-.11-.12-1.07,1.25-2.69,1.13-3.61-.15-.4,.5-.86,.92-1.54,.98-.68,.06-1.23-.18-1.64-.76-.62,.47-1.3,.75-2.07,.73-.78-.02-1.45-.32-1.98-.83-.34,.23-.65,.5-1.01,.66-1.14,.5-2.41,0-2.95-1.15-.11-.22-.06-.41,.12-.51,.19-.11,.39-.04,.51,.19,.24,.46,.58,.8,1.11,.91,.62,.14,1.13-.08,1.56-.52,.1-.11,.19-.23,.29-.34,.21-.27,.44-.27,.66,0,.4,.5,.9,.8,1.53,.87,.78,.09,1.43-.21,1.99-.73,.05-.05,.1-.1,.15-.15,.24-.2,.56-.12,.6,.19,.08,.63,.85,.94,1.47,.61,.34-.18,.56-.47,.77-.78,.05-.08,.09-.16,.15-.24,.17-.23,.44-.23,.6,.01,.1,.15,.18,.31,.29,.46,.63,.89,1.62,.96,2.37,.17,.12-.13,.22-.27,.32-.41,.23-.32,.5-.3,.7,.04,.12,.19,.24,.39,.4,.55,.62,.61,1.55,.66,2.26,.12,.45-.34,.73-.8,.95-1.3,.11-.26-.14-.25-.25-.33-.11-.09-.21-.07-.29,.07-.08,.16-.17,.32-.27,.47-.11,.15-.23,.3-.37,.43-.46,.41-.91,.34-1.15-.22-.14-.34-.24-.72-.27-1.09-.08-.96,.05-1.91,.2-2.86,.04-.23,.18-.33,.41-.34,.49,0,.98-.04,1.46-.04,.21,0,.31-.08,.3-.29,0-.03,0-.06,0-.09,.01-.37,0-.39-.38-.36-.36,.02-.72,.05-1.08,.06-.34,.02-.48-.17-.43-.51,.09-.57,.17-1.13,.25-1.7,.01-.08,0-.17,0-.31-.42,.14-.82,.26-1.2,.4-.07,.03-.14,.15-.15,.23-.1,.55-.19,1.1-.28,1.65-.03,.22-.15,.33-.37,.36-.2,.03-.4,.09-.6,.12-.1,.01-.21,0-.29-.03-.62-.26-1.16-.15-1.63,.34-.1,.11-.19,.23-.28,.35-.21,.27-.5,.26-.64-.03-.43-.89-1.22-.99-2.04-.52-.16,.09-.33,.27-.38,.44-.16,.49-.26,1-.39,1.5-.18,.74-.42,1.46-.89,2.06-.22,.29-.5,.55-.81,.74-.54,.33-1.16,.19-1.52-.33-.17-.24-.27-.53-.36-.81-.09-.28,0-.42,.29-.52,.59-.2,1.15-.46,1.63-.88,.45-.39,.77-.85,.76-1.48,0-.58-.41-.99-.99-1.03-.74-.05-1.33,.27-1.85,.74-.76,.68-1.15,1.54-1.25,2.56-.06,.68-.37,1.28-.87,1.76-.33,.32-.71,.26-.86-.18-.15-.42-.24-.88-.26-1.33-.06-1.19,.12-2.37,.39-3.53,.21-.91,.48-1.8,.74-2.7,.1-.36,.21-.41,.59-.35,1.93,.27,3.86,.57,5.79,.78,1,.11,2.02,.11,3.04,.11,.35,0,.71-.12,1.05-.23,.33-.11,.51-.4,.52-.74,0-.08-.11-.19-.2-.23-.07-.04-.22-.03-.26,.02-.23,.27-.54,.38-.86,.39-.69,.03-1.38,.01-2.07,0-.21,0-.36-.19-.34-.37,.01-.2,.17-.33,.39-.32,.46,.01,.93,.04,1.39,.04,.2,0,.41,0,.61-.06,.13-.03,.25-.14,.38-.2,.18-.09,.37-.24,.56-.25,.78-.05,1.26,.57,1.06,1.33-.17,.62-.58,.99-1.18,1.17-.77,.24-1.57,.24-2.36,.21-1.83-.07-3.63-.37-5.43-.61-.68-.09-1.35-.19-2.07-.3Zm4.28,5.17c-.54,.51-1.18,.85-1.86,1.11,.22,.58,.59,.69,1.03,.29,.42-.38,.65-.87,.83-1.4Z"></path><path d="M35.18,50.06c0,.53,.02,1.07,0,1.6-.05,.94-.63,1.5-1.42,1.89-.17,.08-.34,.03-.44-.13-.15-.21-.3-.43-.39-.67-.21-.55-.39-1.11-.58-1.67-.02-.06-.04-.14-.02-.21,.13-.48,.29-.95,.62-1.34,.12-.14,.26-.26,.47-.21,.21,.05,.27,.22,.31,.41,.01,.05,.02,.11,.03,.16,.04,.3,.1,.35,.37,.23,.17-.08,.33-.21,.47-.33,.13-.11,.25-.19,.42-.12,.17,.07,.23,.2,.17,.38Zm-.72,.72c-.47,.19-.91,.2-1.26-.21-.15,.23-.17,.44-.07,.67,.16,.41,.29,.83,.44,1.24,.04,.1,.09,.19,.14,.28,.82-.45,.82-1.18,.75-1.98Z"></path><path d="M30.2,49.39c.06,.06,.2,.13,.26,.24,.13,.25,.21,.52,.31,.79,.08,.22,.12,.46,.21,.67,.18,.39,.14,.76-.06,1.12-.15,.27-.27,.57-.46,.82-.26,.36-.58,.33-.79-.07-.09-.17-.15-.29-.39-.28-.23,.01-.39-.26-.28-.49,.35-.75,.51-1.55,.7-2.34,.05-.22,.12-.45,.5-.48Zm-.36,2.67l.25,.2c.3-.4,.36-.82,.08-1.26l-.34,1.06Z"></path><path d="M24.79,50.91c.05-.56,.28-1.18,.78-1.68,.29-.29,.64-.47,1.07-.44,.5,.03,.8,.4,.73,.89-.07,.48-.32,.86-.69,1.17-.41,.33-.88,.53-1.4,.64-.36,.08-.52-.08-.49-.57Zm1.89-1.39c-.48-.07-1.08,.58-1.07,1.14,.53-.22,.95-.52,1.07-1.14Z"></path></g><path d="M38.64,4.6c.32,.09,.65,.16,.97,.27,2.49,.88,3.84,2.66,4.13,5.27,.02,.21,.17,.48,.34,.6,1.47,1.09,2.25,2.53,2.25,4.37,0,13.84,0,27.67,0,41.51,0,3.14-2.27,5.37-5.42,5.37-8.56,0-17.11,0-25.67,0-3.18,0-5.42-2.24-5.42-5.42,0-13.78,0-27.57,0-41.35,0-2.48,1.28-4.28,3.62-5.15,.15-.06,.34-.24,.36-.39,.5-2.74,2.15-4.43,4.92-5.01,.05,0,.09-.05,.13-.07h1.54c1.47,.34,2.77,.97,3.73,2.18,.41-.36,.77-.72,1.16-1.04,.78-.63,1.73-.9,2.69-1.14h1.54c.08,.03,.15,.08,.23,.09,1.26,.23,2.33,.82,3.21,1.75,.11,.12,.17,.29,.25,.42,.42-.4,.7-.7,1.02-.95,.33-.26,.68-.52,1.07-.68,.59-.25,1.21-.42,1.81-.63h1.54ZM14.02,12.64c-1.06,.49-1.6,1.35-1.6,2.57,0,13.78,0,27.57,0,41.35,0,1.73,1.08,2.82,2.81,2.82,8.56,0,17.12,0,25.67,0,1.76,0,2.83-1.08,2.83-2.86,0-13.75,0-27.5,0-41.25,0-1.76-1.08-2.85-2.83-2.86-1.71-.01-3.42,0-5.12,0-.13,0-.26,.02-.48,.04,.69,.83,1.5,1.22,2.48,1.27,.87,.05,1.42,.6,1.38,1.39-.04,.77-.66,1.27-1.53,1.21-2.38-.16-4.07-1.34-5.09-3.48-.16-.33-.33-.44-.68-.44-1.71,.02-3.42,0-5.12,0h-.53c.59,.82,1.42,1.25,2.38,1.31,.92,.05,1.48,.58,1.45,1.37-.03,.8-.67,1.3-1.62,1.23-2.34-.18-3.99-1.36-5-3.46-.17-.36-.35-.46-.72-.45-1.33,.02-2.66,0-4,0h-1.69c.73,.88,1.55,1.27,2.55,1.31,.83,.04,1.38,.63,1.34,1.37-.04,.75-.65,1.26-1.48,1.23-1.56-.06-2.91-.62-3.97-1.75-.53-.57-.93-1.25-1.43-1.94Zm20.69-2.84h6.27c-.08-1.33-1.46-2.51-3-2.59-1.55-.08-3.02,1.06-3.27,2.59Zm-2.85,0c-.17-1.45-1.63-2.62-3.18-2.6-1.55,.03-2.98,1.22-3.08,2.6h6.26Zm-15.41-.01h6.27c-.15-1.4-1.57-2.58-3.12-2.59-1.55-.01-2.97,1.15-3.16,2.59Z"></path></svg>