<svg xmlns="http://www.w3.org/2000/svg" id="a" viewBox="0 0 59.14 59.22"><defs><style>.b{fill:#006778;stroke:#006778;stroke-miterlimit:10;}</style></defs><g><path class="b" d="M39.48,19.67c.18,.11,.37,.2,.54,.33,.3,.23,.5,.55,.47,.92-.04,.5-.13,1.01-.22,1.51-.19,.98-.4,1.95-.6,2.92-.15,.76-.31,1.51-.47,2.27-.04,.21-.19,.31-.39,.26-.17-.04-.27-.16-.24-.35,.08-.45,.16-.89,.25-1.34,.17-.85,.35-1.71,.53-2.56,.16-.77,.32-1.54,.47-2.3,.07-.38,.03-.65-.29-.89-.37-.27-.98-.12-1.15,.38-.16,.47-.33,.93-.49,1.4-.61,1.73-1.22,3.46-1.83,5.19-.38,1.07-.77,2.14-1.15,3.21-.12,.35-.25,.7-.38,1.07l2.99,.83c.13-.62,.26-1.23,.38-1.84,.13-.62,.25-1.23,.38-1.85,.03-.14,.06-.3,.24-.34,.28-.06,.46,.11,.4,.4-.28,1.37-.55,2.74-.84,4.11-.03,.13-.14,.24-.23,.35-.37,.48-.75,.96-1.14,1.45,.41,.23,.63,.55,.56,1.04-.07,.49-.39,.72-.78,.81-.02,.37,0,.71-.05,1.04-.07,.43-.35,.77-.63,1.08-.52,.58-1.06,1.13-1.6,1.69-.1,.11-.22,.2-.34,.3-.19,.15-.44,.06-.52-.22-.11-.34-.21-.69-.29-1.04-.14-.66-.28-1.31-.37-1.97-.09-.65,.09-1.25,.61-1.71-.33-.33-.49-.7-.3-1.15,.18-.44,.54-.58,1.01-.61-.02-.23-.03-.46-.06-.69-.05-.4-.09-.81-.16-1.21-.08-.42,.15-.76,.27-1.12,.27-.83,.58-1.65,.87-2.47,.63-1.78,1.26-3.56,1.89-5.34,.32-.91,.65-1.81,.98-2.71,.15-.41,.46-.65,.85-.79,.03-.01,.06-.04,.09-.06h.7Zm-5.63,20.21s.06-.01,.06-.02c.55-.59,1.11-1.16,1.63-1.76,.37-.42,.48-.92,.18-1.44-.05-.09-.15-.17-.25-.21-.33-.11-.66-.19-.99-.28-.13-.03-.27-.1-.38-.07-.38,.1-.76,.62-.74,1.01,.02,.39,.05,.77,.12,1.15,.1,.54,.24,1.08,.37,1.62Zm2.2-5.25l1.18-1.52-2.71-.75c0,.07,0,.1,0,.14,.07,.57,.14,1.13,.21,1.7,0,.04,.07,.1,.12,.12,.4,.11,.81,.22,1.21,.33Zm-2.11,.09c-.18,0-.29,.1-.33,.24-.04,.16,.03,.28,.19,.34,.08,.03,.15,.06,.23,.08,.72,.2,1.43,.39,2.15,.59,.25,.07,.4,.02,.46-.18,.06-.18-.04-.33-.28-.4-.52-.15-1.04-.3-1.56-.44-.29-.08-.57-.15-.86-.23Z"></path><path class="b" d="M19.34,34.02c.03-.16,.07-.32,.09-.48,.16-1.34,.55-2.61,1.09-3.84,.43-1,.95-1.95,1.56-2.86,.05-.08,.12-.15,.19-.21,.13-.09,.26-.06,.37,.05,.13,.13,.11,.29,.03,.43-.22,.38-.48,.73-.68,1.11-.41,.8-.83,1.59-1.16,2.42-.29,.73-.48,1.49-.66,2.25-.15,.66-.19,1.33-.19,2.01,0,.91,.08,1.81,.34,2.68,.19,.63,.49,1.21,.96,1.69,.46,.47,1.02,.76,1.68,.86,.93,.14,1.82-.03,2.7-.36,.91-.35,1.7-.88,2.43-1.5,.62-.52,1.23-1.05,1.79-1.63,.8-.82,1.51-1.72,2.05-2.73,.03-.05,.05-.11,.04-.19-.06,.07-.12,.14-.18,.21-.74,.75-1.45,1.53-2.22,2.25-.61,.57-1.28,1.08-1.93,1.61-.17,.14-.39,.12-.49-.02-.12-.17-.07-.37,.12-.52,.43-.34,.87-.68,1.28-1.05,.65-.6,1.3-1.2,1.92-1.84,.6-.62,1.16-1.29,1.74-1.94,.09-.1,.15-.22,.26-.29,.1-.07,.23-.14,.34-.12,.17,.02,.26,.16,.26,.34-.01,.44-.12,.86-.29,1.26-.39,.94-.95,1.77-1.61,2.54-.48,.55-.96,1.11-1.49,1.61-1.01,.95-2.08,1.84-3.36,2.43-.62,.29-1.26,.5-1.94,.58-.76,.08-1.51,.07-2.24-.2-.86-.32-1.49-.9-1.95-1.69-.4-.7-.6-1.46-.74-2.25-.03-.17-.03-.35-.05-.53,0-.05-.03-.11-.05-.16,0-.65,0-1.3,0-1.94Z"></path><path class="b" d="M28.48,28.34c1.05,.25,1.98,.05,2.83-.47,.4-.25,.79-.53,1.14-.85,.4-.37,.73-.82,1.01-1.3,.38-.65,.63-1.33,.76-2.07,.14-.84,.11-1.66-.39-2.39-.39-.59-.97-.85-1.66-.89-1.05-.06-2.01,.26-2.94,.7-.98,.45-1.86,1.04-2.67,1.74-.61,.53-1.21,1.07-1.77,1.65-.49,.51-.92,1.08-1.38,1.62-.15,.18-.31,.21-.46,.09-.14-.11-.17-.31-.04-.47,.28-.35,.55-.71,.85-1.05,.46-.51,.93-1.03,1.43-1.51,.94-.9,1.97-1.69,3.11-2.33,.74-.41,1.51-.74,2.33-.93,.8-.19,1.61-.27,2.42,0,1.02,.35,1.57,1.1,1.79,2.12,.24,1.13,0,2.2-.43,3.24-.36,.86-.86,1.63-1.53,2.27-.73,.69-1.57,1.22-2.56,1.46-.91,.22-1.81,.13-2.68-.21-.26-.1-.5-.24-.75-.37-.17-.09-.16-.25-.11-.39,.05-.16,.19-.23,.34-.2,.58,.1,1.12-.01,1.64-.25,.85-.38,1.5-.99,2.08-1.71,.56-.7,1-1.47,1.28-2.32,.11-.34,.16-.69,.14-1.05-.02-.3-.27-.52-.61-.53-.48-.01-.91,.15-1.33,.34-.78,.36-1.49,.85-2.13,1.42-.42,.37-.85,.74-1.23,1.15-.63,.68-1.23,1.39-1.65,2.22-.49,.98-.98,1.97-1.42,2.97-.53,1.22-.95,2.49-1.23,3.8-.14,.61-.17,1.25-.27,1.87-.09,.55,0,1.09,.13,1.61,.17,.66,.56,1.15,1.25,1.31,.49,.12,.97,0,1.42-.18,.35-.15,.69-.32,1.03-.49,.16-.07,.34-.03,.42,.11,.09,.15,.04,.35-.11,.44-.61,.37-1.27,.67-1.98,.77-1.18,.15-2.2-.35-2.6-1.59-.13-.39-.18-.81-.2-1.22-.03-.49-.01-.99,.04-1.48,.05-.48,.16-.95,.26-1.42,.3-1.34,.74-2.63,1.27-3.89,.53-1.26,1.08-2.51,1.85-3.65,.32-.47,.69-.91,1.06-1.34,.31-.36,.64-.72,1-1.04,1.02-.92,2.1-1.75,3.43-2.2,.41-.14,.84-.22,1.28-.12,.57,.12,.89,.47,.94,1.09,.06,.7-.15,1.36-.43,1.99-.46,1.04-1.11,1.95-1.95,2.72-.57,.53-1.21,.96-2.04,1.19Z"></path></g><g><path class="b" d="M28.65,12.79c.11,.69-.24,1.06-.84,1.3-1.76,.73-3.49,1.52-5.27,2.2-1.01,.38-2.12-.07-2.69-.77-.49-.6-.32-1.12,.18-1.47,.62-.43,1.36-.68,2.02-1.04,1.13-.61,2.29-1.18,3.35-1.88,1.54-1.02,2.91-2.3,4.52-3.17,1.64-.89,3.48-1.42,5.22-2.12,.79-.32,1.56-.13,2.33,.06,1.28,.31,2.54,.74,3.84,.89,1.82,.21,3.68,.4,5.49,.26,1.26-.1,2.53-.65,3.54-1.57,1.74-1.57,3.5-3.11,5.25-4.65,.12-.1,.28-.16,.42-.23l.19,.13c-.15,.24-.25,.54-.45,.73-1.46,1.36-2.94,2.69-4.41,4.03-1.14,1.04-2.48,1.66-3.97,2.06-1.52,.4-2.99,.4-4.5,.02-.5-.13-1.05-.1-1.56-.21-1.42-.31-2.82-.69-4.25-.95-.59-.11-1.27-.12-1.84,.06-1.07,.34-2.08,.84-3.11,1.29-.89,.39-1.85,.67-2.65,1.2-1.76,1.16-3.4,2.49-5.16,3.66-.74,.49-1.62,.76-2.45,1.13-.37,.17-.76,.29-1.13,.47-.66,.32-.74,1-.09,1.33,.41,.21,1.03,.32,1.44,.17,2.25-.81,4.63-1.36,6.57-2.88l-.03-.03Z"></path><path class="b" d="M30.6,46.36c-.25-.69,.07-1.08,.68-1.33,.98-.42,1.95-.86,2.93-1.27,.52-.22,1.1-.32,1.58-.61,.79-.48,1.62-.35,2.45-.34,.81,0,1,.76,1.3,1.29,.11,.18-.17,.77-.43,.95-.6,.42-1.26,.83-1.95,1.03-1.37,.4-2.46,1.2-3.57,2.04-1.41,1.07-2.81,2.21-4.37,3.03-1.67,.88-3.5,1.5-5.31,2.1-.64,.21-1.42,.12-2.11-.01-1.32-.24-2.6-.74-3.92-.9-1.84-.22-3.72-.4-5.56-.28-1.27,.09-2.54,.66-3.56,1.56-1.73,1.54-3.46,3.09-5.19,4.63-.16,.14-.34,.24-.52,.36l-.16-.11c.13-.25,.2-.56,.39-.74,1.74-1.62,3.44-3.3,5.3-4.77,.87-.68,2.08-.92,3.12-1.39,1.27-.58,2.62-.34,3.89-.24,1.58,.13,3.13,.59,4.7,.91,.81,.16,1.62,.33,2.44,.48,.91,.17,1.72-.25,2.53-.54,.94-.34,1.84-.81,2.78-1.19,2.58-1.05,4.53-3.03,6.8-4.55,.45-.3,.95-.53,1.45-.75,.69-.31,1.41-.55,2.11-.85,.65-.28,.75-.94,.14-1.24-.47-.23-1.12-.27-1.64-.16-.8,.16-1.58,.48-2.33,.81-1.19,.51-2.35,1.06-3.51,1.62-.18,.09-.3,.3-.45,.46l.02,.02Z"></path><path class="b" d="M28.65,12.79l.03,.03c-.4-.55-.59-1.17-.17-1.74,.42-.57,.94-.95,1.8-.96,1.61-.02,3.23-.26,4.84-.41,.1,0,.19-.03,.29-.03,1.2-.05,2.39-.13,3.59-.15,.26,0,.52,.17,.78,.26-.26,.13-.51,.34-.78,.37-1.53,.14-3.07,.22-4.61,.34-1.43,.11-2.86,.22-4.29,.34-.57,.05-1.12,.16-1.25,.84-.11,.59,.35,1.12,1.07,1.34,1.78,.55,3.57,.84,5.45,.67,1.59-.14,3.03,.48,4.41,1.29,.89,.52,1.89,.89,2.88,1.17,2.32,.66,4.41-.16,6.48-1.12,2.17-1.01,4.36-1.96,6.53-2.95,.67-.31,1.3-.7,1.97-1.03,.22-.11,.49-.13,.74-.2l.11,.23c-.23,.16-.45,.36-.7,.49-2.08,1.06-4.14,2.19-6.27,3.14-1.78,.79-3.61,1.52-5.48,2.02-2.07,.55-4.1,.21-5.99-.91-.84-.5-1.71-1.01-2.64-1.28-.71-.21-1.52-.04-2.29-.12l.91-.05v-.13c-.3,0-.62-.07-.91,.01-1.52,.42-2.99-.06-4.45-.29-.73-.12-1.38-.76-2.06-1.17Z"></path><path class="b" d="M30.57,46.34c.6,1.63-.19,2.6-1.92,2.63-1.57,.02-3.13,.28-4.69,.44-.07,0-.14,.02-.21,.02-1.27,.06-2.54,.12-3.8,.15-.2,0-.41-.14-.61-.21,.19-.14,.37-.4,.57-.41,1.1-.1,2.21-.13,3.31-.21,2.01-.14,4.02-.27,6.02-.49,.37-.04,.84-.42,.99-.77,.21-.47-.09-.98-.6-1.16-.77-.27-1.55-.54-2.35-.63-1.84-.21-3.71-.24-5.54-.51-.76-.11-1.48-.61-2.2-.95-.86-.41-1.67-.99-2.58-1.22-1.7-.43-3.44-.43-5.11,.28-1.9,.81-3.81,1.6-5.69,2.46-1.6,.73-3.15,1.56-4.73,2.33-.21,.1-.46,.12-.69,.17l-.11-.19c.15-.16,.26-.38,.44-.47,1.87-.96,3.73-1.95,5.64-2.84,1.36-.63,2.82-1.06,4.18-1.7,2.01-.94,4.09-1.08,6.22-.67,.61,.12,1.18,.46,1.73,.78,1.57,.9,3.09,1.89,5.04,1.54h-.77v.16c.37,0,.77,.09,1.12-.02,1.46-.44,2.85,.09,4.24,.3,.76,.11,1.43,.79,2.14,1.21l-.02-.02Z"></path></g></svg>